<svg height="512pt" viewBox="0 0 512 512" width="512pt" xmlns="http://www.w3.org/2000/svg"><path d="m512 256c0 141.386719-114.613281 256-256 256s-256-114.613281-256-256 114.613281-256 256-256 256 114.613281 256 256zm0 0" fill="#414952"/><path d="m293.09375 509.316406c123.804688-17.972656 218.90625-124.53125 218.90625-253.316406 0-3.433594-.089844-6.84375-.222656-10.246094l-58.964844-58.964844-10.488281 6.921876-53.167969-53.171876 9.519531 44.730469-79.019531-79.019531-10.015625 7.390625-53.640625-53.640625-39.34375 121.082031 82.222656 82.222657-9.8125 28.644531-105.160156-105.15625-9.753906 7.652343-53.90625-53.902343-39.339844 121.082031 162.777344 162.777344-9.058594 26.441406zm0 0" fill="#23272b"/><path d="m120.25 140.542969 19.671875 39.855469 43.984375 6.390624-31.828125 31.027344 7.511719 43.808594-39.339844-20.683594-39.34375 20.683594 7.515625-43.808594-31.832031-31.027344 43.988281-6.390624zm0 0" fill="#ffd400"/><path d="m256 60 19.671875 39.859375 43.984375 6.390625-31.828125 31.023438 7.515625 43.808593-39.34375-20.683593-39.34375 20.683593 7.515625-43.808593-31.828125-31.023438 43.984375-6.390625zm0 0" fill="#ffd400"/><path d="m256 160.398438 39.34375 20.683593-7.515625-43.808593 31.828125-31.023438-43.984375-6.390625-19.671875-39.859375zm0 0" fill="#fca915"/><path d="m389.15625 140.542969 19.671875 39.855469 43.988281 6.390624-31.832031 31.027344 7.515625 43.808594-39.34375-20.683594-39.339844 20.683594 7.511719-43.808594-31.828125-31.027344 43.984375-6.390624zm0 0" fill="#fca915"/><path d="m331.898438 303.140625c0-43.351563-34.570313-78.421875-76.980469-77.816406-41.90625.597656-75.65625 36.472656-74.800781 79.4375.425781 21.296875 9.191406 40.484375 23.082031 54.285156 9.027343 8.960937 14.761719 20.84375 15.832031 33.679687l3.199219 38.410157h67.539062l3.199219-38.410157c1.066406-12.796874 6.738281-24.679687 15.75-33.601562 14.289062-14.152344 23.179688-34.003906 23.179688-55.984375zm0 0" fill="#ffce00"/><path d="m255.554688 225.328125v205.808594h34.214843l3.199219-38.410157c1.066406-12.796874 6.738281-24.679687 15.75-33.601562 14.289062-14.152344 23.179688-34 23.179688-55.984375 0-43.132813-34.222657-78.058594-76.34375-77.8125zm0 0" fill="#fca915"/><path d="m256 457.894531c-19.839844 0-35.925781-16.082031-35.925781-35.921875v-16.726562h71.847656v16.726562c.003906 19.839844-16.082031 35.921875-35.921875 35.921875zm0 0" fill="#fff"/><path d="m255.554688 405.246094v52.640625c.148437 0 .296874.007812.445312.007812 19.839844 0 35.925781-16.082031 35.925781-35.921875v-16.726562zm0 0" fill="#e9edf5"/></svg>