<?xml version="1.0" encoding="UTF-8" standalone="no"?>
<svg
   xmlns:dc="http://purl.org/dc/elements/1.1/"
   xmlns:cc="http://creativecommons.org/ns#"
   xmlns:rdf="http://www.w3.org/1999/02/22-rdf-syntax-ns#"
   xmlns:svg="http://www.w3.org/2000/svg"
   xmlns="http://www.w3.org/2000/svg"
   xmlns:sodipodi="http://sodipodi.sourceforge.net/DTD/sodipodi-0.dtd"
   xmlns:inkscape="http://www.inkscape.org/namespaces/inkscape"
   height="512pt"
   viewBox="0 0 512 512"
   width="512pt"
   version="1.1"
   id="svg22"
   sodipodi:docname="appreciate.svg"
   inkscape:version="0.92.3 (2405546, 2018-03-11)">
  <metadata
     id="metadata28">
    <rdf:RDF>
      <cc:Work
         rdf:about="">
        <dc:format>image/svg+xml</dc:format>
        <dc:type
           rdf:resource="http://purl.org/dc/dcmitype/StillImage" />
      </cc:Work>
    </rdf:RDF>
  </metadata>
  <defs
     id="defs26" />
  <sodipodi:namedview
     pagecolor="#ffffff"
     bordercolor="#666666"
     borderopacity="1"
     objecttolerance="10"
     gridtolerance="10"
     guidetolerance="10"
     inkscape:pageopacity="0"
     inkscape:pageshadow="2"
     inkscape:window-width="1920"
     inkscape:window-height="1017"
     id="namedview24"
     showgrid="false"
     inkscape:zoom="0.34570313"
     inkscape:cx="341.33333"
     inkscape:cy="341.33333"
     inkscape:window-x="0"
     inkscape:window-y="27"
     inkscape:window-maximized="1"
     inkscape:current-layer="svg22" />
  <path
     d="m512 256c0 141.386719-114.613281 256-256 256s-256-114.613281-256-256 114.613281-256 256-256 256 114.613281 256 256zm0 0"
     fill="#414952"
     id="path2"
     style="fill:#30e3ca;fill-opacity:1" />
  <path
     d="m293.09375 509.316406c123.804688-17.972656 218.90625-124.53125 218.90625-253.316406 0-3.433594-.089844-6.84375-.222656-10.246094l-58.964844-58.964844-10.488281 6.921876-53.167969-53.171876 9.519531 44.730469-79.019531-79.019531-10.015625 7.390625-53.640625-53.640625-39.34375 121.082031 82.222656 82.222657-9.8125 28.644531-105.160156-105.15625-9.753906 7.652343-53.90625-53.902343-39.339844 121.082031 162.777344 162.777344-9.058594 26.441406zm0 0"
     fill="#23272b"
     id="path4"
     style="fill:#1abea7;fill-opacity:1" />
  <path
     d="m120.25 140.542969 19.671875 39.855469 43.984375 6.390624-31.828125 31.027344 7.511719 43.808594-39.339844-20.683594-39.34375 20.683594 7.515625-43.808594-31.832031-31.027344 43.988281-6.390624zm0 0"
     fill="#ffd400"
     id="path6" />
  <path
     d="m256 60 19.671875 39.859375 43.984375 6.390625-31.828125 31.023438 7.515625 43.808593-39.34375-20.683593-39.34375 20.683593 7.515625-43.808593-31.828125-31.023438 43.984375-6.390625zm0 0"
     fill="#ffd400"
     id="path8" />
  <path
     d="m256 160.398438 39.34375 20.683593-7.515625-43.808593 31.828125-31.023438-43.984375-6.390625-19.671875-39.859375zm0 0"
     fill="#fca915"
     id="path10" />
  <path
     d="m389.15625 140.542969 19.671875 39.855469 43.988281 6.390624-31.832031 31.027344 7.515625 43.808594-39.34375-20.683594-39.339844 20.683594 7.511719-43.808594-31.828125-31.027344 43.984375-6.390624zm0 0"
     fill="#fca915"
     id="path12" />
  <path
     d="m331.898438 303.140625c0-43.351563-34.570313-78.421875-76.980469-77.816406-41.90625.597656-75.65625 36.472656-74.800781 79.4375.425781 21.296875 9.191406 40.484375 23.082031 54.285156 9.027343 8.960937 14.761719 20.84375 15.832031 33.679687l3.199219 38.410157h67.539062l3.199219-38.410157c1.066406-12.796874 6.738281-24.679687 15.75-33.601562 14.289062-14.152344 23.179688-34.003906 23.179688-55.984375zm0 0"
     fill="#ffce00"
     id="path14" />
  <path
     d="m255.554688 225.328125v205.808594h34.214843l3.199219-38.410157c1.066406-12.796874 6.738281-24.679687 15.75-33.601562 14.289062-14.152344 23.179688-34 23.179688-55.984375 0-43.132813-34.222657-78.058594-76.34375-77.8125zm0 0"
     fill="#fca915"
     id="path16" />
  <path
     d="m256 457.894531c-19.839844 0-35.925781-16.082031-35.925781-35.921875v-16.726562h71.847656v16.726562c.003906 19.839844-16.082031 35.921875-35.921875 35.921875zm0 0"
     fill="#fff"
     id="path18" />
  <path
     d="m255.554688 405.246094v52.640625c.148437 0 .296874.007812.445312.007812 19.839844 0 35.925781-16.082031 35.925781-35.921875v-16.726562zm0 0"
     fill="#e9edf5"
     id="path20" />
</svg>
