<svg height="512pt" viewBox="0 0 512 512" width="512pt" xmlns="http://www.w3.org/2000/svg"><path d="m512 256c0 141.386719-114.613281 256-256 256s-256-114.613281-256-256 114.613281-256 256-256 256 114.613281 256 256zm0 0" fill="#00c800"/><path d="m287.265625 510.097656c125.070313-15.230468 222.292969-120.652344 224.671875-249.265625l-156.414062-156.417969-73.476563 121.074219-120.449219 158.941407zm0 0" fill="#00ad00"/><path d="m441.609375 190.503906-58.78125 58.777344c-16.84375 16.847656-41.195313 21.730469-62.390625 14.660156l-94.285156 99.816406-13.492188 14.277344-27.910156 29.550782-46.304688-46.308594 29.53125-27.921875 14.269532-13.5 99.800781-94.367188c-7.019531-21.175781-2.128906-45.46875 14.695313-62.292969l58.78125-58.78125 19.667968 19.671876-48.808594 48.808593 13.886719 13.882813 48.808594-48.808594 18.976563 18.976562-48.402344 48.402344 13.882812 13.886719 48.402344-48.40625zm0 0" fill="#dfcdbd"/><path d="m441.609375 190.503906-58.78125 58.777344c-16.84375 16.847656-41.195313 21.730469-62.390625 14.660156l-94.285156 99.816406-13.492188 14.277344-27.910156 29.550782-23.15625-23.15625 236.972656-236.972657 9.488282 9.488281-48.40625 48.402344 13.886718 13.886719 48.402344-48.402344zm0 0" fill="#c8ad92"/><path d="m212.660156 378.035156-44.679687-44.679687 14.265625-13.5 43.90625 43.902343zm0 0" fill="#8a6744"/><path d="m212.660156 378.035156-22.335937-22.335937 13.886719-13.882813 21.941406 21.941406zm0 0" fill="#644b31"/><path d="m371.820312 360.515625-47.070312 47.070313-28.742188-30.398438-13.496093-14.277344-67.488281-71.375 7.128906-6.746094 26.820312-26.816406 6.738282-7.136718 71.414062 67.464843 14.28125 13.484375zm0 0" fill="#8a6744"/><path d="m371.820312 360.515625-23.597656 23.597656-112.695312-112.695312 13.445312-13.445313 6.738282-7.136718 71.414062 67.464843 14.28125 13.484375zm0 0" fill="#644b31"/><path d="m137.261719 109.859375 145.878906 145.878906-63.164063 63.167969-90.804687-90.804688c-21.949219-21.949218-28.039063-53.835937-18.257813-81.296874 3.746094-10.542969 9.832032-20.433594 18.257813-28.859376zm0 0" fill="#dfcdbd"/><path d="m341.40625 331.785156-45.398438 45.402344-13.496093-14.277344 44.613281-44.609375zm0 0" fill="#dfcdbd"/><g fill="#c8ad92"><path d="m327.125 318.300781 14.28125 13.484375-22.757812 22.757813-13.882813-13.882813zm0 0"/><path d="m137.261719 109.859375 145.878906 145.878906-31.648437 31.648438-140.578126-140.582031c3.746094-10.542969 9.832032-20.433594 18.257813-28.855469zm0 0"/></g></svg>