<svg height="512pt" viewBox="0 0 512 512" width="512pt" xmlns="http://www.w3.org/2000/svg"><path d="m512 256c0 141.386719-114.613281 256-256 256s-256-114.613281-256-256 114.613281-256 256-256 256 114.613281 256 256zm0 0" fill="#f00"/><path d="m497.398438 341.375c-55.859376-55.855469-135.484376-135.484375-135.617188-135.613281-12.601562-12.605469-27.070312-22.664063-42.769531-29.960938-.203125-.203125-39.621094-39.601562-39.621094-39.601562l-191 229.613281 145.199219 145.199219c7.386718.640625 14.859375.988281 22.410156.988281 111.445312 0 206.242188-71.222656 241.398438-170.625zm0 0" fill="#e70020"/><path d="m288.410156 158.59375c0 7.4375-2.585937 14.707031-7.28125 20.46875l-7.613281-6.203125h-35.03125l-7.613281 6.203125c-4.691406-5.761719-7.28125-13.03125-7.28125-20.46875 0-17.867188 14.542968-32.410156 32.410156-32.410156s32.410156 14.542968 32.410156 32.410156zm0 0" fill="#8a6744"/><path d="m273.515625 172.859375h-17.515625v-46.675781c17.867188 0 32.410156 14.542968 32.410156 32.410156 0 7.4375-2.585937 14.707031-7.28125 20.46875zm0 0" fill="#644b31"/><path d="m405.605469 311.550781h-299.210938c0-39.964843 15.566407-77.53125 43.820313-105.789062 28.253906-28.253907 65.828125-43.816407 105.785156-43.816407s77.53125 15.5625 105.78125 43.816407c28.257812 28.257812 43.824219 65.824219 43.824219 105.789062zm0 0" fill="#dfcdbd"/><path d="m405.605469 311.550781h-149.605469v-149.605469c39.957031 0 77.53125 15.5625 105.78125 43.816407 28.257812 28.257812 43.824219 65.824219 43.824219 105.789062zm0 0" fill="#c8ad92"/><path d="m88.390625 305.167969h335.21875v60.644531h-335.21875zm0 0" fill="#c8ad92"/><path d="m256 305.167969h167.609375v60.644531h-167.609375zm0 0" fill="#bd9b7b"/></svg>